<svg xmlns="http://www.w3.org/2000/svg" version="1.1" xmlns:xlink="http://www.w3.org/1999/xlink" xmlns:svgjs="http://svgjs.com/svgjs" width="1443" height="106" preserveAspectRatio="none" viewBox="0 0 1443 106"><g mask="url(&quot;#SvgjsMask1423&quot;)" fill="none"><rect width="1443" height="106" x="0" y="0" fill="url(#SvgjsLinearGradient1424)"></rect><path d="M48.07 82.67L48.07 82.67" stroke="rgba(185, 29, 29, 1)" stroke-width="1.5"></path><path d="M48.07 82.67L85.04 193.45" stroke="rgba(185, 29, 29, 1)" stroke-width="1.5"></path><path d="M48.07 82.67L239.88 206.13" stroke="rgba(185, 29, 29, 1)" stroke-width="1.5"></path><path d="M48.07 82.67L373.07 225.06" stroke="rgba(185, 29, 29, 1)" stroke-width="1.5"></path><path d="M48.07 82.67L494.84 100.37" stroke="rgba(185, 29, 29, 1)" stroke-width="1.5"></path><path d="M85.04 193.45L85.04 193.45" stroke="rgba(185, 29, 29, 1)" stroke-width="1.5"></path><path d="M85.04 193.45L239.88 206.13" stroke="rgba(185, 29, 29, 1)" stroke-width="1.5"></path><path d="M85.04 193.45L373.07 225.06" stroke="rgba(185, 29, 29, 1)" stroke-width="1.5"></path><path d="M85.04 193.45L494.84 100.37" stroke="rgba(185, 29, 29, 1)" stroke-width="1.5"></path><path d="M239.88 206.13L239.88 206.13" stroke="rgba(185, 29, 29, 1)" stroke-width="1.5"></path><path d="M239.88 206.13L373.07 225.06" stroke="rgba(185, 29, 29, 1)" stroke-width="1.5"></path><path d="M239.88 206.13L494.84 100.37" stroke="rgba(185, 29, 29, 1)" stroke-width="1.5"></path><path d="M373.07 225.06L373.07 225.06" stroke="rgba(185, 29, 29, 1)" stroke-width="1.5"></path><path d="M373.07 225.06L494.84 100.37" stroke="rgba(185, 29, 29, 1)" stroke-width="1.5"></path><path d="M494.84 100.37L494.84 100.37" stroke="rgba(185, 29, 29, 1)" stroke-width="1.5"></path><path d="M494.84 100.37L557.83 236.52" stroke="rgba(185, 29, 29, 1)" stroke-width="1.5"></path><path d="M494.84 100.37L672.87 61.9" stroke="rgba(185, 29, 29, 1)" stroke-width="1.5"></path><path d="M494.84 100.37L693.81 206.26" stroke="rgba(185, 29, 29, 1)" stroke-width="1.5"></path><path d="M494.84 100.37L793.3 72.61" stroke="rgba(185, 29, 29, 1)" stroke-width="1.5"></path><path d="M557.83 236.52L557.83 236.52" stroke="rgba(185, 29, 29, 1)" stroke-width="1.5"></path><path d="M557.83 236.52L693.81 206.26" stroke="rgba(185, 29, 29, 1)" stroke-width="1.5"></path><path d="M557.83 236.52L373.07 225.06" stroke="rgba(185, 29, 29, 1)" stroke-width="1.5"></path><path d="M557.83 236.52L672.87 61.9" stroke="rgba(185, 29, 29, 1)" stroke-width="1.5"></path><path d="M557.83 236.52L812.06 246.32" stroke="rgba(185, 29, 29, 1)" stroke-width="1.5"></path><path d="M672.87 61.9L672.87 61.9" stroke="rgba(185, 29, 29, 1)" stroke-width="1.5"></path><path d="M672.87 61.9L793.3 72.61" stroke="rgba(185, 29, 29, 1)" stroke-width="1.5"></path><path d="M672.87 61.9L693.81 206.26" stroke="rgba(185, 29, 29, 1)" stroke-width="1.5"></path><path d="M693.81 206.26L693.81 206.26" stroke="rgba(185, 29, 29, 1)" stroke-width="1.5"></path><path d="M693.81 206.26L812.06 246.32" stroke="rgba(185, 29, 29, 1)" stroke-width="1.5"></path><path d="M693.81 206.26L793.3 72.61" stroke="rgba(185, 29, 29, 1)" stroke-width="1.5"></path><path d="M793.3 72.61L793.3 72.61" stroke="rgba(185, 29, 29, 1)" stroke-width="1.5"></path><path d="M793.3 72.61L812.06 246.32" stroke="rgba(185, 29, 29, 1)" stroke-width="1.5"></path><path d="M812.06 246.32L812.06 246.32" stroke="rgba(185, 29, 29, 1)" stroke-width="1.5"></path><path d="M812.06 246.32L973.8 196.9" stroke="rgba(185, 29, 29, 1)" stroke-width="1.5"></path><path d="M812.06 246.32L672.87 61.9" stroke="rgba(185, 29, 29, 1)" stroke-width="1.5"></path><path d="M812.06 246.32L974.88 41.62" stroke="rgba(185, 29, 29, 1)" stroke-width="1.5"></path><path d="M992.9 -48.57L992.9 -48.57" stroke="rgba(185, 29, 29, 1)" stroke-width="1.5"></path><path d="M992.9 -48.57L974.88 41.62" stroke="rgba(185, 29, 29, 1)" stroke-width="1.5"></path><path d="M992.9 -48.57L1142.52 -111.88" stroke="rgba(185, 29, 29, 1)" stroke-width="1.5"></path><path d="M992.9 -48.57L1121.06 55.27" stroke="rgba(185, 29, 29, 1)" stroke-width="1.5"></path><path d="M992.9 -48.57L793.3 72.61" stroke="rgba(185, 29, 29, 1)" stroke-width="1.5"></path><path d="M974.88 41.62L974.88 41.62" stroke="rgba(185, 29, 29, 1)" stroke-width="1.5"></path><path d="M974.88 41.62L1121.06 55.27" stroke="rgba(185, 29, 29, 1)" stroke-width="1.5"></path><path d="M974.88 41.62L973.8 196.9" stroke="rgba(185, 29, 29, 1)" stroke-width="1.5"></path><path d="M974.88 41.62L793.3 72.61" stroke="rgba(185, 29, 29, 1)" stroke-width="1.5"></path><path d="M973.8 196.9L973.8 196.9" stroke="rgba(185, 29, 29, 1)" stroke-width="1.5"></path><path d="M973.8 196.9L1121.06 55.27" stroke="rgba(185, 29, 29, 1)" stroke-width="1.5"></path><path d="M973.8 196.9L793.3 72.61" stroke="rgba(185, 29, 29, 1)" stroke-width="1.5"></path><path d="M973.8 196.9L992.9 -48.57" stroke="rgba(185, 29, 29, 1)" stroke-width="1.5"></path><path d="M1142.52 -111.88L1142.52 -111.88" stroke="rgba(185, 29, 29, 1)" stroke-width="1.5"></path><path d="M1142.52 -111.88L1290.98 -67.44" stroke="rgba(185, 29, 29, 1)" stroke-width="1.5"></path><path d="M1142.52 -111.88L1121.06 55.27" stroke="rgba(185, 29, 29, 1)" stroke-width="1.5"></path><path d="M1142.52 -111.88L974.88 41.62" stroke="rgba(185, 29, 29, 1)" stroke-width="1.5"></path><path d="M1121.06 55.27L1121.06 55.27" stroke="rgba(185, 29, 29, 1)" stroke-width="1.5"></path><path d="M1290.98 -67.44L1290.98 -67.44" stroke="rgba(185, 29, 29, 1)" stroke-width="1.5"></path><path d="M1290.98 -67.44L1421.89 -68.15" stroke="rgba(185, 29, 29, 1)" stroke-width="1.5"></path><path d="M1290.98 -67.44L1310.05 67.29" stroke="rgba(185, 29, 29, 1)" stroke-width="1.5"></path><path d="M1310.05 67.29L1310.05 67.29" stroke="rgba(185, 29, 29, 1)" stroke-width="1.5"></path><path d="M1310.05 67.29L1428.12 97.72" stroke="rgba(185, 29, 29, 1)" stroke-width="1.5"></path><path d="M1310.05 67.29L1270.26 215.09" stroke="rgba(185, 29, 29, 1)" stroke-width="1.5"></path><path d="M1310.05 67.29L1421.89 -68.15" stroke="rgba(185, 29, 29, 1)" stroke-width="1.5"></path><path d="M1310.05 67.29L1121.06 55.27" stroke="rgba(185, 29, 29, 1)" stroke-width="1.5"></path><path d="M1310.05 67.29L1441.07 261.82" stroke="rgba(185, 29, 29, 1)" stroke-width="1.5"></path><path d="M1270.26 215.09L1270.26 215.09" stroke="rgba(185, 29, 29, 1)" stroke-width="1.5"></path><path d="M1270.26 215.09L1441.07 261.82" stroke="rgba(185, 29, 29, 1)" stroke-width="1.5"></path><path d="M1270.26 215.09L1428.12 97.72" stroke="rgba(185, 29, 29, 1)" stroke-width="1.5"></path><path d="M1270.26 215.09L1121.06 55.27" stroke="rgba(185, 29, 29, 1)" stroke-width="1.5"></path><path d="M1270.26 215.09L1290.98 -67.44" stroke="rgba(185, 29, 29, 1)" stroke-width="1.5"></path><path d="M1421.89 -68.15L1421.89 -68.15" stroke="rgba(185, 29, 29, 1)" stroke-width="1.5"></path><path d="M1421.89 -68.15L1428.12 97.72" stroke="rgba(185, 29, 29, 1)" stroke-width="1.5"></path><path d="M1428.12 97.72L1428.12 97.72" stroke="rgba(185, 29, 29, 1)" stroke-width="1.5"></path><path d="M1428.12 97.72L1582.73 82.44" stroke="rgba(185, 29, 29, 1)" stroke-width="1.5"></path><path d="M1428.12 97.72L1441.07 261.82" stroke="rgba(185, 29, 29, 1)" stroke-width="1.5"></path><path d="M1441.07 261.82L1441.07 261.82" stroke="rgba(185, 29, 29, 1)" stroke-width="1.5"></path><path d="M1441.07 261.82L1601.8 248.65" stroke="rgba(185, 29, 29, 1)" stroke-width="1.5"></path><path d="M1605.46 -60.07L1605.46 -60.07" stroke="rgba(185, 29, 29, 1)" stroke-width="1.5"></path><path d="M1605.46 -60.07L1582.73 82.44" stroke="rgba(185, 29, 29, 1)" stroke-width="1.5"></path><path d="M1605.46 -60.07L1421.89 -68.15" stroke="rgba(185, 29, 29, 1)" stroke-width="1.5"></path><path d="M1605.46 -60.07L1428.12 97.72" stroke="rgba(185, 29, 29, 1)" stroke-width="1.5"></path><path d="M1582.73 82.44L1582.73 82.44" stroke="rgba(185, 29, 29, 1)" stroke-width="1.5"></path><path d="M1601.8 248.65L1601.8 248.65" stroke="rgba(185, 29, 29, 1)" stroke-width="1.5"></path><path d="M1601.8 248.65L1582.73 82.44" stroke="rgba(185, 29, 29, 1)" stroke-width="1.5"></path><path d="M1601.8 248.65L1428.12 97.72" stroke="rgba(185, 29, 29, 1)" stroke-width="1.5"></path><path d="M1601.8 248.65L1605.46 -60.07" stroke="rgba(185, 29, 29, 1)" stroke-width="1.5"></path><path d="M1601.8 248.65L1270.26 215.09" stroke="rgba(185, 29, 29, 1)" stroke-width="1.5"></path><path d="M1601.8 248.65L1310.05 67.29" stroke="rgba(185, 29, 29, 1)" stroke-width="1.5"></path><circle r="5" cx="48.07" cy="82.67" fill="rgba(185, 29, 29, 1)"></circle><circle r="5" cx="85.04" cy="193.45" fill="rgba(185, 29, 29, 1)"></circle><circle r="5" cx="239.88" cy="206.13" fill="rgba(185, 29, 29, 1)"></circle><circle r="5" cx="373.07" cy="225.06" fill="rgba(185, 29, 29, 1)"></circle><circle r="5" cx="494.84" cy="100.37" fill="rgba(185, 29, 29, 1)"></circle><circle r="5" cx="557.83" cy="236.52" fill="rgba(185, 29, 29, 1)"></circle><circle r="5" cx="672.87" cy="61.9" fill="rgba(185, 29, 29, 1)"></circle><circle r="5" cx="693.81" cy="206.26" fill="rgba(185, 29, 29, 1)"></circle><circle r="5" cx="793.3" cy="72.61" fill="rgba(185, 29, 29, 1)"></circle><circle r="5" cx="812.06" cy="246.32" fill="rgba(185, 29, 29, 1)"></circle><circle r="5" cx="992.9" cy="-48.57" fill="rgba(185, 29, 29, 1)"></circle><circle r="5" cx="974.88" cy="41.62" fill="rgba(185, 29, 29, 1)"></circle><circle r="5" cx="973.8" cy="196.9" fill="rgba(185, 29, 29, 1)"></circle><circle r="5" cx="1142.52" cy="-111.88" fill="rgba(185, 29, 29, 1)"></circle><circle r="5" cx="1121.06" cy="55.27" fill="rgba(185, 29, 29, 1)"></circle><circle r="5" cx="1290.98" cy="-67.44" fill="rgba(185, 29, 29, 1)"></circle><circle r="5" cx="1310.05" cy="67.29" fill="rgba(185, 29, 29, 1)"></circle><circle r="5" cx="1270.26" cy="215.09" fill="rgba(185, 29, 29, 1)"></circle><circle r="5" cx="1421.89" cy="-68.15" fill="rgba(185, 29, 29, 1)"></circle><circle r="5" cx="1428.12" cy="97.72" fill="rgba(185, 29, 29, 1)"></circle><circle r="5" cx="1441.07" cy="261.82" fill="rgba(185, 29, 29, 1)"></circle><circle r="5" cx="1605.46" cy="-60.07" fill="rgba(185, 29, 29, 1)"></circle><circle r="5" cx="1582.73" cy="82.44" fill="rgba(185, 29, 29, 1)"></circle><circle r="5" cx="1601.8" cy="248.65" fill="rgba(185, 29, 29, 1)"></circle><path d="M348.92 250.36L348.92 250.36" stroke="hsl(228.5, 77.2%, 51.5%)" stroke-width="1.5"></path><path d="M348.92 250.36L217.1 199.62" stroke="hsl(228.5, 77.2%, 51.5%)" stroke-width="1.5"></path><path d="M348.92 250.36L501.23 247.19" stroke="hsl(228.5, 77.2%, 51.5%)" stroke-width="1.5"></path><path d="M348.92 250.36L367.14 84.32" stroke="hsl(228.5, 77.2%, 51.5%)" stroke-width="1.5"></path><path d="M348.92 250.36L501.85 106.51" stroke="hsl(228.5, 77.2%, 51.5%)" stroke-width="1.5"></path><path d="M348.92 250.36L74.22 251.48" stroke="hsl(228.5, 77.2%, 51.5%)" stroke-width="1.5"></path><path d="M951.36 76.23L951.36 76.23" stroke="hsl(228.5, 77.2%, 51.5%)" stroke-width="1.5"></path><path d="M951.36 76.23L997.73 207.69" stroke="hsl(228.5, 77.2%, 51.5%)" stroke-width="1.5"></path><path d="M951.36 76.23L857.79 225.55" stroke="hsl(228.5, 77.2%, 51.5%)" stroke-width="1.5"></path><path d="M997.73 207.69L997.73 207.69" stroke="hsl(228.5, 77.2%, 51.5%)" stroke-width="1.5"></path><path d="M997.73 207.69L857.79 225.55" stroke="hsl(228.5, 77.2%, 51.5%)" stroke-width="1.5"></path><path d="M997.73 207.69L1155.59 101.87" stroke="hsl(228.5, 77.2%, 51.5%)" stroke-width="1.5"></path><path d="M997.73 207.69L1243.96 230.84" stroke="hsl(228.5, 77.2%, 51.5%)" stroke-width="1.5"></path><path d="M997.73 207.69L1263.14 90.53" stroke="hsl(228.5, 77.2%, 51.5%)" stroke-width="1.5"></path><path d="M997.73 207.69L653.52 227.25" stroke="hsl(228.5, 77.2%, 51.5%)" stroke-width="1.5"></path><path d="M1569.4 229.15L1569.4 229.15" stroke="hsl(228.5, 77.2%, 51.5%)" stroke-width="1.5"></path><path d="M1569.4 229.15L1410.05 233.1" stroke="hsl(228.5, 77.2%, 51.5%)" stroke-width="1.5"></path><path d="M1569.4 229.15L1568.51 49.94" stroke="hsl(228.5, 77.2%, 51.5%)" stroke-width="1.5"></path><path d="M-45.83 243.31L-45.83 243.31" stroke="hsl(228.5, 77.2%, 51.5%)" stroke-width="1.5"></path><path d="M-45.83 243.31L74.22 251.48" stroke="hsl(228.5, 77.2%, 51.5%)" stroke-width="1.5"></path><path d="M-45.83 243.31L217.1 199.62" stroke="hsl(228.5, 77.2%, 51.5%)" stroke-width="1.5"></path><path d="M-45.83 243.31L348.92 250.36" stroke="hsl(228.5, 77.2%, 51.5%)" stroke-width="1.5"></path><path d="M-45.83 243.31L367.14 84.32" stroke="hsl(228.5, 77.2%, 51.5%)" stroke-width="1.5"></path><path d="M74.22 251.48L74.22 251.48" stroke="hsl(228.5, 77.2%, 51.5%)" stroke-width="1.5"></path><path d="M74.22 251.48L217.1 199.62" stroke="hsl(228.5, 77.2%, 51.5%)" stroke-width="1.5"></path><path d="M74.22 251.48L367.14 84.32" stroke="hsl(228.5, 77.2%, 51.5%)" stroke-width="1.5"></path><path d="M74.22 251.48L501.23 247.19" stroke="hsl(228.5, 77.2%, 51.5%)" stroke-width="1.5"></path><path d="M217.1 199.62L217.1 199.62" stroke="hsl(228.5, 77.2%, 51.5%)" stroke-width="1.5"></path><path d="M367.14 84.32L367.14 84.32" stroke="hsl(228.5, 77.2%, 51.5%)" stroke-width="1.5"></path><path d="M367.14 84.32L501.85 106.51" stroke="hsl(228.5, 77.2%, 51.5%)" stroke-width="1.5"></path><path d="M367.14 84.32L217.1 199.62" stroke="hsl(228.5, 77.2%, 51.5%)" stroke-width="1.5"></path><path d="M367.14 84.32L501.23 247.19" stroke="hsl(228.5, 77.2%, 51.5%)" stroke-width="1.5"></path><path d="M367.14 84.32L653.52 227.25" stroke="hsl(228.5, 77.2%, 51.5%)" stroke-width="1.5"></path><path d="M501.85 106.51L501.85 106.51" stroke="hsl(228.5, 77.2%, 51.5%)" stroke-width="1.5"></path><path d="M501.85 106.51L501.23 247.19" stroke="hsl(228.5, 77.2%, 51.5%)" stroke-width="1.5"></path><path d="M501.85 106.51L653.52 227.25" stroke="hsl(228.5, 77.2%, 51.5%)" stroke-width="1.5"></path><path d="M501.85 106.51L217.1 199.62" stroke="hsl(228.5, 77.2%, 51.5%)" stroke-width="1.5"></path><path d="M501.85 106.51L857.79 225.55" stroke="hsl(228.5, 77.2%, 51.5%)" stroke-width="1.5"></path><path d="M501.23 247.19L501.23 247.19" stroke="hsl(228.5, 77.2%, 51.5%)" stroke-width="1.5"></path><path d="M501.23 247.19L653.52 227.25" stroke="hsl(228.5, 77.2%, 51.5%)" stroke-width="1.5"></path><path d="M501.23 247.19L217.1 199.62" stroke="hsl(228.5, 77.2%, 51.5%)" stroke-width="1.5"></path><path d="M501.23 247.19L857.79 225.55" stroke="hsl(228.5, 77.2%, 51.5%)" stroke-width="1.5"></path><path d="M653.52 227.25L653.52 227.25" stroke="hsl(228.5, 77.2%, 51.5%)" stroke-width="1.5"></path><path d="M857.79 225.55L857.79 225.55" stroke="hsl(228.5, 77.2%, 51.5%)" stroke-width="1.5"></path><path d="M1155.59 101.87L1155.59 101.87" stroke="hsl(228.5, 77.2%, 51.5%)" stroke-width="1.5"></path><path d="M1155.59 101.87L1263.14 90.53" stroke="hsl(228.5, 77.2%, 51.5%)" stroke-width="1.5"></path><path d="M1155.59 101.87L1243.96 230.84" stroke="hsl(228.5, 77.2%, 51.5%)" stroke-width="1.5"></path><path d="M1155.59 101.87L1264.18 -54.73" stroke="hsl(228.5, 77.2%, 51.5%)" stroke-width="1.5"></path><path d="M1155.59 101.87L951.36 76.23" stroke="hsl(228.5, 77.2%, 51.5%)" stroke-width="1.5"></path><path d="M1264.18 -54.73L1264.18 -54.73" stroke="hsl(228.5, 77.2%, 51.5%)" stroke-width="1.5"></path><path d="M1264.18 -54.73L1263.14 90.53" stroke="hsl(228.5, 77.2%, 51.5%)" stroke-width="1.5"></path><path d="M1264.18 -54.73L1414.19 -105.87" stroke="hsl(228.5, 77.2%, 51.5%)" stroke-width="1.5"></path><path d="M1264.18 -54.73L1408.23 98.54" stroke="hsl(228.5, 77.2%, 51.5%)" stroke-width="1.5"></path><path d="M1264.18 -54.73L1243.96 230.84" stroke="hsl(228.5, 77.2%, 51.5%)" stroke-width="1.5"></path><path d="M1264.18 -54.73L1568.51 49.94" stroke="hsl(228.5, 77.2%, 51.5%)" stroke-width="1.5"></path><path d="M1263.14 90.53L1263.14 90.53" stroke="hsl(228.5, 77.2%, 51.5%)" stroke-width="1.5"></path><path d="M1263.14 90.53L1243.96 230.84" stroke="hsl(228.5, 77.2%, 51.5%)" stroke-width="1.5"></path><path d="M1243.96 230.84L1243.96 230.84" stroke="hsl(228.5, 77.2%, 51.5%)" stroke-width="1.5"></path><path d="M1243.96 230.84L1410.05 233.1" stroke="hsl(228.5, 77.2%, 51.5%)" stroke-width="1.5"></path><path d="M1243.96 230.84L1408.23 98.54" stroke="hsl(228.5, 77.2%, 51.5%)" stroke-width="1.5"></path><path d="M1414.19 -105.87L1414.19 -105.87" stroke="hsl(228.5, 77.2%, 51.5%)" stroke-width="1.5"></path><path d="M1414.19 -105.87L1585.52 -98.04" stroke="hsl(228.5, 77.2%, 51.5%)" stroke-width="1.5"></path><path d="M1414.19 -105.87L1408.23 98.54" stroke="hsl(228.5, 77.2%, 51.5%)" stroke-width="1.5"></path><path d="M1408.23 98.54L1408.23 98.54" stroke="hsl(228.5, 77.2%, 51.5%)" stroke-width="1.5"></path><path d="M1408.23 98.54L1410.05 233.1" stroke="hsl(228.5, 77.2%, 51.5%)" stroke-width="1.5"></path><path d="M1408.23 98.54L1263.14 90.53" stroke="hsl(228.5, 77.2%, 51.5%)" stroke-width="1.5"></path><path d="M1408.23 98.54L1568.51 49.94" stroke="hsl(228.5, 77.2%, 51.5%)" stroke-width="1.5"></path><path d="M1408.23 98.54L1569.4 229.15" stroke="hsl(228.5, 77.2%, 51.5%)" stroke-width="1.5"></path><path d="M1410.05 233.1L1410.05 233.1" stroke="hsl(228.5, 77.2%, 51.5%)" stroke-width="1.5"></path><path d="M1410.05 233.1L1263.14 90.53" stroke="hsl(228.5, 77.2%, 51.5%)" stroke-width="1.5"></path><path d="M1410.05 233.1L1568.51 49.94" stroke="hsl(228.5, 77.2%, 51.5%)" stroke-width="1.5"></path><path d="M1410.05 233.1L1155.59 101.87" stroke="hsl(228.5, 77.2%, 51.5%)" stroke-width="1.5"></path><path d="M1585.52 -98.04L1585.52 -98.04" stroke="hsl(228.5, 77.2%, 51.5%)" stroke-width="1.5"></path><path d="M1585.52 -98.04L1568.51 49.94" stroke="hsl(228.5, 77.2%, 51.5%)" stroke-width="1.5"></path><path d="M1585.52 -98.04L1408.23 98.54" stroke="hsl(228.5, 77.2%, 51.5%)" stroke-width="1.5"></path><path d="M1585.52 -98.04L1264.18 -54.73" stroke="hsl(228.5, 77.2%, 51.5%)" stroke-width="1.5"></path><path d="M1568.51 49.94L1568.51 49.94" stroke="hsl(228.5, 77.2%, 51.5%)" stroke-width="1.5"></path><path d="M1568.51 49.94L1414.19 -105.87" stroke="hsl(228.5, 77.2%, 51.5%)" stroke-width="1.5"></path><circle r="25" cx="348.92" cy="250.36" fill="url(#SvgjsRadialGradient1425)"></circle><circle r="25" cx="951.36" cy="76.23" fill="url(#SvgjsRadialGradient1425)"></circle><circle r="25" cx="997.73" cy="207.69" fill="url(#SvgjsRadialGradient1425)"></circle><circle r="25" cx="1569.4" cy="229.15" fill="url(#SvgjsRadialGradient1425)"></circle><circle r="5" cx="-45.83" cy="243.31" fill="#8b9ad9"></circle><circle r="5" cx="74.22" cy="251.48" fill="#8b9ad9"></circle><circle r="5" cx="217.1" cy="199.62" fill="#8b9ad9"></circle><circle r="5" cx="367.14" cy="84.32" fill="#8b9ad9"></circle><circle r="5" cx="501.85" cy="106.51" fill="#8b9ad9"></circle><circle r="5" cx="501.23" cy="247.19" fill="#8b9ad9"></circle><circle r="5" cx="653.52" cy="227.25" fill="#8b9ad9"></circle><circle r="5" cx="857.79" cy="225.55" fill="#8b9ad9"></circle><circle r="5" cx="1155.59" cy="101.87" fill="#8b9ad9"></circle><circle r="5" cx="1264.18" cy="-54.73" fill="#8b9ad9"></circle><circle r="5" cx="1263.14" cy="90.53" fill="#8b9ad9"></circle><circle r="5" cx="1243.96" cy="230.84" fill="#8b9ad9"></circle><circle r="5" cx="1414.19" cy="-105.87" fill="#8b9ad9"></circle><circle r="5" cx="1408.23" cy="98.54" fill="#8b9ad9"></circle><circle r="5" cx="1410.05" cy="233.1" fill="#8b9ad9"></circle><circle r="5" cx="1585.52" cy="-98.04" fill="#8b9ad9"></circle><circle r="5" cx="1568.51" cy="49.94" fill="#8b9ad9"></circle></g><defs><mask id="SvgjsMask1423"><rect width="1443" height="106" fill="#ffffff"></rect></mask><linearGradient x1="100%" y1="50%" x2="0%" y2="50%" gradientUnits="userSpaceOnUse" id="SvgjsLinearGradient1424"><stop stop-color="#0e2a47" offset="0"></stop><stop stop-color="rgba(0, 0, 0, 1)" offset="1"></stop></linearGradient><radialGradient id="SvgjsRadialGradient1425"><stop stop-color="#ffffff" offset="0.1"></stop><stop stop-color="#1735b3" offset="0.2"></stop><stop stop-color="rgba(23, 53, 179, 0)" offset="1"></stop></radialGradient></defs></svg>